<svg width="64" height="64" viewBox="0 0 64 64" fill="none" xmlns="http://www.w3.org/2000/svg">
<circle cx="32" cy="32" r="31.5" fill="black"/>
<path d="M24.3 22.44H25.96V26.04C27.2 25.7467 28.2067 25.6 28.98 25.6C31.4067 25.6 32.62 27.56 32.62 31.48C32.62 35.6667 31.28 37.76 28.6 37.76C28.0533 37.76 27.34 37.68 26.46 37.52C25.5933 37.3733 24.8733 37.2 24.3 37V22.44ZM25.96 35.96C26.8 36.1867 27.6133 36.3 28.4 36.3C29.1867 36.3 29.7067 36.1933 29.96 35.98C30.5733 35.4067 30.88 33.92 30.88 31.52C30.88 29.12 30.6667 27.7467 30.24 27.4C29.96 27.1867 29.5533 27.08 29.02 27.08C28.0733 27.08 27.0533 27.2533 25.96 27.6V35.96ZM40.0634 37.76C36.9701 37.76 35.4234 35.7333 35.4234 31.68C35.4234 27.6267 36.9568 25.6 40.0234 25.6C41.3834 25.6 42.4034 26.0267 43.0834 26.88C43.7634 27.72 44.1034 29.12 44.1034 31.08V32.32H37.1834C37.1834 34.12 37.4701 35.2867 38.0434 35.82C38.4034 36.14 38.8968 36.3 39.5234 36.3C40.6434 36.3 41.7434 36.1133 42.8234 35.74L43.3634 35.54L43.7834 36.9C42.6634 37.4733 41.4234 37.76 40.0634 37.76ZM41.9434 27.64C41.6768 27.24 41.0234 27.04 39.9834 27.04C38.9434 27.04 38.2168 27.3133 37.8034 27.86C37.3901 28.4067 37.1834 29.4533 37.1834 31L42.4034 30.9C42.4034 29.2333 42.2501 28.1467 41.9434 27.64Z" fill="white"/>
</svg>
