<svg width="126" height="57" viewBox="0 0 126 57" fill="none" xmlns="http://www.w3.org/2000/svg">
<path d="M10.88 29.52C9.06667 29.52 5.88 29.3467 1.32 29V0.919999C5.85333 0.546666 9.12 0.359999 11.12 0.359999C13.1467 0.359999 14.8533 0.626666 16.24 1.16C17.6533 1.66666 18.7733 2.34666 19.6 3.2C20.4267 4.02667 21.0933 5.08 21.6 6.36C22.48 8.49333 22.92 11.24 22.92 14.6C22.92 19.9067 21.8667 23.72 19.76 26.04C17.6533 28.36 14.6933 29.52 10.88 29.52ZM7.56 23.92C8.68 24.0533 9.96 24.12 11.4 24.12C12.84 24.12 13.84 23.8667 14.4 23.36C15.6267 22.3467 16.24 19.48 16.24 14.76C16.24 10.04 15.6667 7.25333 14.52 6.4C13.9333 5.94667 12.9067 5.72 11.44 5.72L7.56 5.96V23.92ZM46.7541 28.88C45.4207 29.3067 43.8741 29.52 42.1141 29.52C40.3541 29.52 38.7941 29.3067 37.4341 28.88C36.1007 28.4533 34.8607 27.72 33.7141 26.68C31.3141 24.5467 30.1141 20.6133 30.1141 14.88C30.1141 8.42667 31.7674 4.16 35.0741 2.08C36.8607 0.933332 39.2074 0.359999 42.1141 0.359999C46.6741 0.359999 49.9007 1.8 51.7941 4.68C53.3407 7.02667 54.1141 10.4267 54.1141 14.88C54.1141 20.6133 52.9141 24.5467 50.5141 26.68C49.3674 27.72 48.1141 28.4533 46.7541 28.88ZM38.9141 6.52C38.1941 6.94667 37.6341 7.82667 37.2341 9.16C36.8341 10.4667 36.6341 12.4 36.6341 14.96C36.6341 17.4933 36.8341 19.4267 37.2341 20.76C37.6607 22.0933 38.2341 22.9733 38.9541 23.4C39.7007 23.8 40.7541 24 42.1141 24C43.4741 24 44.5141 23.7867 45.2341 23.36C46.8074 22.4533 47.5941 19.6533 47.5941 14.96C47.5941 10.2133 46.8341 7.4 45.3141 6.52C44.5674 6.09333 43.5007 5.88 42.1141 5.88C40.7274 5.88 39.6607 6.09333 38.9141 6.52ZM62.6419 29V0.88H68.9219L68.7219 23.6L79.0819 23.52V29H62.6419ZM85.1778 29V0.88H91.4578L91.2578 23.6L101.618 23.52V29H85.1778ZM110.762 29L110.882 18.88L102.242 0.88H108.922L113.842 13.76H114.082L119.002 0.88H125.682L117.042 18.88L117.122 29H110.762ZM19.52 33.48C16.2133 33.08 13.68 32.88 11.92 32.88C10.16 32.88 8.97333 33.12 8.36 33.6C7.16 34.56 6.56 37.4667 6.56 42.32C6.56 44.5333 6.74667 46.3467 7.12 47.76C7.52 49.1733 8 50.0933 8.56 50.52C9.14667 50.9467 10 51.16 11.12 51.16C12.2667 51.16 13.52 50.9867 14.88 50.64C16.24 50.2667 17.7867 49.7333 19.52 49.04L21.32 53.76C21 53.9733 20.5467 54.24 19.96 54.56C19.3733 54.8533 18.2133 55.2533 16.48 55.76C14.7467 56.2667 13.04 56.52 11.36 56.52C7.78667 56.52 5 55.3733 3 53.08C1 50.7867 2.98023e-08 47.16 2.98023e-08 42.2C2.98023e-08 37.5067 0.746667 34 2.24 31.68C2.93333 30.5867 3.8 29.72 4.84 29.08C5.90667 28.4133 7 27.96 8.12 27.72C9.26667 27.48 10.4667 27.36 11.72 27.36C12.9733 27.36 14.44 27.4667 16.12 27.68C17.8267 27.8667 19.1867 28.0933 20.2 28.36L19.52 33.48ZM26.0466 56V27.88H32.3266L32.2066 39.04H41.4866L41.3666 27.88H47.6466V56H41.3666L41.4866 44.4H32.2066L32.3266 56H26.0466ZM56.8888 56H50.5287L58.5688 27.88H66.0888L74.1288 56H67.7688L66.1688 49.76H58.4888L56.8888 56ZM64.9688 44.48L62.4488 33.64H62.2088L59.6888 44.48H64.9688ZM77.2184 27.88H85.0584L93.7384 47.84H93.9784L93.4984 27.88H99.2984V56H91.4584L82.7784 36.04H82.5384L83.0184 56H77.2184V27.88ZM112.771 33.64C111.651 34.6533 111.091 37.4 111.091 41.88C111.091 46.3333 111.678 49.1467 112.851 50.32C113.545 50.96 114.678 51.28 116.251 51.28C117.825 51.28 118.985 51.2 119.731 51.04V45L115.651 44.72V40.2H125.851V54.68C124.705 55.16 123.238 55.5867 121.451 55.96C119.691 56.3333 118.078 56.52 116.611 56.52C115.145 56.52 113.851 56.4 112.731 56.16C111.638 55.9467 110.558 55.52 109.491 54.88C108.451 54.2133 107.571 53.36 106.851 52.32C105.305 49.9733 104.531 46.48 104.531 41.84C104.531 36.0267 105.705 32.1067 108.051 30.08C109.251 29.04 110.558 28.3333 111.971 27.96C113.411 27.56 115.371 27.36 117.851 27.36C120.331 27.36 122.985 27.7067 125.811 28.4L125.091 33.48C121.491 33.08 118.678 32.88 116.651 32.88C114.651 32.88 113.358 33.1333 112.771 33.64Z" fill="black"/>
</svg>
