<svg width="102" height="116" viewBox="0 0 102 116" fill="none" xmlns="http://www.w3.org/2000/svg">
<path fill-rule="evenodd" clip-rule="evenodd" d="M64.6 98.2329C86.1641 92.3961 102 73.0194 102 50.0154C102 22.3927 79.1665 0 51 0C22.8335 0 0 22.3927 0 50.0154C0 73.0194 15.8359 92.3961 37.4 98.2329C41.7297 99.4048 51 115.369 51 115.369C51 115.369 60.2703 99.4048 64.6 98.2329ZM56.926 95.7533C66.2122 93.2398 73.0318 84.8955 73.0318 74.9892C73.0318 63.0938 63.1988 53.4507 51.0693 53.4507C38.9398 53.4507 29.1069 63.0938 29.1069 74.9892C29.1069 84.8955 35.9264 93.2398 45.2127 95.7533C47.0772 96.258 51.0693 103.133 51.0693 103.133C51.0693 103.133 55.0615 96.258 56.926 95.7533Z" fill="#C4C4C4"/>
</svg>
