<svg width="129" height="35" viewBox="0 0 129 35" fill="none" xmlns="http://www.w3.org/2000/svg">
<path d="M22.335 8.76102L11.081 33.6356C10.9487 34.0168 10.6756 34.3414 10.3107 34.5511C9.94577 34.7608 9.51299 34.8418 9.09001 34.7797H4.354L8.42301 26.7806L0 8.76102H5.57501C5.97578 8.73565 6.37349 8.84156 6.70001 9.06061C6.958 9.25217 7.15795 9.50361 7.28001 9.78993L10.743 18.3002C11.0656 19.076 11.3289 19.8722 11.531 20.6829C11.678 20.2775 11.831 19.8721 11.981 19.4593C12.131 19.0464 12.281 18.6485 12.448 18.26L15.582 9.78993C15.7109 9.48665 15.9378 9.2287 16.231 9.05218C16.5323 8.86021 16.8886 8.75835 17.253 8.76008L22.335 8.76102Z" fill="#E09352"/>
<path d="M32.975 8.4532C34.4515 8.43941 35.9182 8.67832 37.303 9.15817C38.588 9.59347 39.7567 10.2849 40.7283 11.1846C41.6998 12.0843 42.451 13.1709 42.93 14.3691C43.4675 15.7158 43.7316 17.1446 43.709 18.5821C43.7379 20.0505 43.4737 21.511 42.93 22.8886C42.4489 24.1024 41.6992 25.2073 40.73 26.1307C39.7669 27.0241 38.6135 27.7173 37.345 28.1651C35.9616 28.6507 34.4943 28.8925 33.017 28.8785C31.5138 28.8986 30.0197 28.6567 28.611 28.1651C27.3333 27.7156 26.1691 27.0229 25.192 26.1307C24.2149 25.2103 23.4593 24.1049 22.976 22.8886C22.4378 21.5245 22.1737 20.0791 22.197 18.6251C22.1743 17.1877 22.4385 15.7589 22.976 14.4122C23.463 13.212 24.2186 12.1232 25.192 11.2188C26.1699 10.3314 27.3342 9.64402 28.611 9.2003C30.0054 8.70606 31.484 8.45292 32.975 8.4532ZM32.975 24.4362C33.5964 24.4776 34.2186 24.3662 34.7799 24.1132C35.3412 23.8601 35.8221 23.4741 36.175 22.9935C36.9546 21.6587 37.3093 20.1428 37.197 18.6251C37.3109 17.1101 36.9561 15.5964 36.175 14.2652C35.8195 13.7881 35.3376 13.4057 34.7765 13.1555C34.2155 12.9054 33.5947 12.7961 32.975 12.8384C32.343 12.7907 31.7087 12.8971 31.1337 13.1471C30.5587 13.3972 30.0627 13.7824 29.694 14.2652C28.9031 15.593 28.5428 17.1077 28.657 18.6242C28.5444 20.1437 28.9054 21.6612 29.696 22.9925C30.0621 23.4784 30.5568 23.8668 31.1317 24.1196C31.7066 24.3724 32.3418 24.4808 32.975 24.4343V24.4362Z" fill="#E09352"/>
<path d="M65.9051 8.76129L54.6511 33.6344C54.501 33.9729 54.2627 34.271 53.9581 34.5013C53.5638 34.7124 53.111 34.8083 52.6581 34.7765H47.9161L51.9851 26.7776L43.5701 8.76129H49.1401C49.5439 8.73401 49.9451 8.84001 50.2741 9.06087C50.5295 9.25471 50.729 9.50547 50.8541 9.79018L54.3171 18.3003C54.6475 19.0745 54.9149 19.871 55.1171 20.6829C55.2641 20.2775 55.4111 19.8722 55.5671 19.4593C55.7231 19.0464 55.8671 18.6485 56.0341 18.26L59.1681 9.79018C59.2969 9.48691 59.5239 9.22896 59.8171 9.05245C60.1156 8.86168 60.4687 8.75986 60.8301 8.76035L65.9051 8.76129Z" fill="#E09352"/>
<path d="M66.641 11.5408C67.8785 10.5066 69.3193 9.70817 70.883 9.18996C72.4869 8.65071 74.1788 8.37639 75.883 8.37921C77.066 8.3621 78.2416 8.55756 79.346 8.95497C80.3245 9.31849 81.2103 9.87063 81.946 10.5755C82.6609 11.2755 83.2174 12.1034 83.582 13.0097C83.9719 14.0119 84.1653 15.0718 84.153 16.1384V28.4794H81.254C80.7904 28.5034 80.3274 28.4228 79.904 28.2445C79.5356 28.0253 79.2648 27.6883 79.142 27.2961L78.692 26.2101C78.21 26.6079 77.7009 26.976 77.168 27.312C76.6907 27.6253 76.1836 27.8967 75.653 28.1228C75.1199 28.3515 74.5587 28.5175 73.982 28.6171C73.3345 28.7327 72.6761 28.7869 72.017 28.779C71.1365 28.7874 70.2597 28.67 69.417 28.4308C68.6796 28.2209 67.998 27.8674 67.417 27.3935C66.8561 26.9239 66.4202 26.3382 66.144 25.683C65.8278 24.9354 65.6748 24.1361 65.694 23.3322C65.7053 22.5797 65.9007 21.8395 66.265 21.1687C66.7273 20.355 67.4075 19.6678 68.239 19.1745C69.401 18.4756 70.6796 17.9633 72.022 17.6588C73.9861 17.2092 76 16.9779 78.022 16.9698V16.159C78.1108 15.2645 77.839 14.3712 77.26 13.6547C76.9832 13.3813 76.6464 13.1673 76.2729 13.0274C75.8993 12.8874 75.4978 12.8248 75.096 12.844C74.4582 12.8516 73.8263 12.9585 73.226 13.1604C72.7886 13.3003 72.363 13.4709 71.953 13.6706C71.581 13.8653 71.217 14.0357 70.871 14.1893C70.4721 14.3495 70.0409 14.4268 69.607 14.4158C69.2146 14.426 68.829 14.318 68.507 14.1078C68.2158 13.9153 67.9686 13.6702 67.78 13.3869L66.641 11.5408ZM77.99 20.4562C76.9471 20.4842 75.908 20.5872 74.882 20.7642C74.211 20.8696 73.5586 21.0605 72.943 21.3316C72.5404 21.5113 72.1987 21.7919 71.956 22.1423C71.7767 22.433 71.6841 22.7634 71.688 23.0991C71.6546 23.3626 71.6909 23.6297 71.7936 23.877C71.8963 24.1243 72.0623 24.3442 72.277 24.5174C72.7919 24.8251 73.3986 24.9701 74.008 24.9312C74.7413 24.9457 75.4689 24.8073 76.138 24.5259C76.8346 24.2021 77.4624 23.7624 77.991 23.2283L77.99 20.4562Z" fill="#E09352"/>
<path d="M93.6689 0V15.9746H94.6039C94.9027 15.9917 95.201 15.9359 95.4699 15.8126C95.7141 15.675 95.9238 15.4898 96.0849 15.2696L100.067 9.70947C100.295 9.41396 100.591 9.17017 100.933 8.99607C101.305 8.82812 101.715 8.74746 102.128 8.76108H107.911L102.457 15.7883C101.952 16.4096 101.33 16.9397 100.622 17.3527C100.941 17.5692 101.232 17.8206 101.488 18.1017C101.758 18.4059 102.004 18.7282 102.224 19.066L108.163 28.5161H102.463C102.044 28.5266 101.627 28.4519 101.242 28.297C100.868 28.1201 100.565 27.836 100.376 27.4863L96.3939 20.5003C96.2651 20.2428 96.0559 20.028 95.7939 19.8842C95.52 19.7773 95.2245 19.7274 94.9279 19.7382H93.7069V28.4834H87.4009V0H93.6689Z" fill="#E09352"/>
<path d="M128.634 8.76099V28.5152H124.734C124.392 28.5414 124.052 28.4566 123.769 28.2749C123.487 28.0933 123.28 27.826 123.184 27.5181L122.82 26.375C122.424 26.7366 122.001 27.0723 121.556 27.3795C121.121 27.6785 120.654 27.9339 120.162 28.1416C119.645 28.3583 119.105 28.524 118.552 28.6359C117.934 28.7601 117.304 28.8198 116.673 28.8138C115.62 28.8315 114.576 28.6401 113.608 28.2521C112.743 27.8932 111.977 27.3558 111.366 26.6802C110.737 25.9814 110.266 25.171 109.981 24.2975C109.659 23.324 109.501 22.3094 109.514 21.2904V8.76099H115.814V21.267C115.759 22.0792 116.014 22.8833 116.533 23.5364C116.794 23.8108 117.118 24.0263 117.481 24.1668C117.844 24.3072 118.236 24.3688 118.628 24.3471C119.299 24.3545 119.963 24.2157 120.567 23.9417C121.196 23.6448 121.778 23.2684 122.298 22.823V8.76099H128.634Z" fill="#E09352"/>
</svg>
